<svg width="243" height="105" viewBox="0 0 243 105" fill="none" xmlns="http://www.w3.org/2000/svg">
<path d="M234.037 82.8494H235.825V95.6469H234.037V82.8494ZM238.565 93.9845C239.477 93.9845 240.143 93.8154 240.558 93.4654C240.978 93.1213 241.183 92.6313 241.183 92.0072V91.978C241.183 91.5464 241.107 91.173 240.961 90.8581C240.809 90.5489 240.575 90.3098 240.248 90.1406C239.921 89.9773 239.512 89.8898 239.004 89.8898H235.089V88.2682H239.004C239.664 88.2682 240.166 88.1107 240.505 87.8016C240.844 87.4866 241.013 87.0316 241.013 86.4192C241.013 85.7775 240.826 85.2992 240.447 84.9843C240.073 84.6693 239.506 84.5118 238.752 84.5118H235.083V82.8494H239.08C239.909 82.8494 240.604 82.9894 241.16 83.2752C241.72 83.5552 242.135 83.9518 242.416 84.471C242.69 84.9901 242.831 85.6026 242.831 86.32C242.831 86.7575 242.749 87.1716 242.573 87.5566C242.404 87.9416 242.141 88.2682 241.796 88.5424C241.446 88.8165 241.013 88.9973 240.493 89.0907C241.013 89.1665 241.457 89.3531 241.831 89.639C242.205 89.9306 242.498 90.2923 242.696 90.7239C242.901 91.1614 243 91.628 243 92.1355V92.1646C243 92.8529 242.848 93.4654 242.538 93.9962C242.235 94.527 241.796 94.9353 241.224 95.2211C240.657 95.507 239.991 95.6528 239.231 95.6528H235.089V93.9845H238.565ZM209.235 95.7811C208.288 95.7811 207.476 95.5944 206.804 95.2211C206.132 94.8478 205.618 94.3054 205.267 93.5937C204.911 92.8821 204.736 92.0247 204.736 91.0214V82.8494H206.535V91.0797C206.535 92.013 206.775 92.7363 207.242 93.2438C207.71 93.7571 208.376 94.0079 209.235 94.0079C210.099 94.0079 210.765 93.7512 211.239 93.2438C211.712 92.7305 211.951 92.013 211.951 91.0797V82.8494H213.751V91.0214C213.751 92.0247 213.576 92.8821 213.219 93.5937C212.869 94.3054 212.355 94.8478 211.677 95.2211C210.999 95.5944 210.187 95.7811 209.235 95.7811ZM176.31 88.4899H183.427V90.1989H176.31V88.4899ZM175.189 82.8494H176.988V95.6469H175.189V82.8494ZM182.475 82.8494H184.274V95.6469H182.475V82.8494ZM142.416 82.8494H151.461V84.5584H142.416V82.8494ZM146.039 83.8993H147.838V95.6528H146.039V83.8993ZM122.831 95.6469H121.032V82.8494H122.831V95.6469Z" fill="white"/>
<path d="M223.795 40.4728L236.193 59.22V40.292C236.193 39.0612 236.462 38.1454 236.988 37.533C237.514 36.9205 238.226 36.6055 239.126 36.6055C240.044 36.6055 240.78 36.9088 241.311 37.5213C241.843 38.1338 242.112 39.0612 242.112 40.292V65.2921C242.112 68.0861 240.955 69.4744 238.641 69.4744C238.063 69.4744 237.543 69.3927 237.075 69.2235C236.614 69.0602 236.176 68.7919 235.778 68.4361C235.369 68.0744 235.001 67.6486 234.651 67.1645C234.3 66.6804 233.955 66.1846 233.605 65.6829L221.51 47.1749V65.7879C221.51 67.0012 221.23 67.9228 220.663 68.5411C220.09 69.1652 219.366 69.4744 218.484 69.4744C217.572 69.4744 216.836 69.1652 216.287 68.5352C215.732 67.9053 215.457 66.9895 215.457 65.7879V41.2719C215.457 40.2278 215.574 39.4112 215.808 38.822C216.082 38.1687 216.544 37.6379 217.181 37.2238C217.818 36.8155 218.507 36.6113 219.243 36.6113C219.828 36.6113 220.324 36.7047 220.733 36.8913C221.148 37.0838 221.51 37.3346 221.826 37.6554C222.135 37.9763 222.457 38.3787 222.784 38.892C223.105 39.3937 223.444 39.9186 223.795 40.4728ZM203.31 52.9554C203.31 50.628 202.93 48.6098 202.182 46.9007C201.429 45.1975 200.354 43.9084 198.957 43.0276C197.561 42.1527 195.954 41.7152 194.143 41.7152C192.857 41.7152 191.665 41.9602 190.573 42.4385C189.474 42.9285 188.534 43.6284 187.745 44.5559C186.956 45.4833 186.337 46.6674 185.875 48.1023C185.425 49.5489 185.191 51.1588 185.191 52.9495C185.191 54.7636 185.419 56.391 185.875 57.8609C186.337 59.3191 186.979 60.5324 187.809 61.4948C188.639 62.4573 189.597 63.1747 190.672 63.6472C191.753 64.1313 192.933 64.3647 194.224 64.3647C195.878 64.3647 197.391 63.9505 198.776 63.1281C200.155 62.3056 201.253 61.034 202.077 59.3075C202.901 57.5984 203.31 55.4694 203.31 52.9554ZM194.143 36.6055C197.45 36.6055 200.283 37.2705 202.65 38.6121C205.016 39.942 206.81 41.8494 208.025 44.3109C209.24 46.7782 209.848 49.6714 209.848 52.9962C209.848 55.4519 209.515 57.6917 208.849 59.6983C208.183 61.7107 207.19 63.4489 205.852 64.9246C204.519 66.4004 202.883 67.5261 200.944 68.3078C198.998 69.0835 196.784 69.4802 194.277 69.4802C191.788 69.4802 189.55 69.0777 187.587 68.2728C185.612 67.4736 183.976 66.342 182.656 64.8838C181.335 63.4255 180.342 61.6698 179.664 59.6108C178.992 57.5576 178.653 55.341 178.653 52.9554C178.653 50.5113 179.004 48.2773 179.705 46.2299C180.412 44.1942 181.423 42.4618 182.761 41.0269C184.087 39.5978 185.711 38.5012 187.628 37.7488C189.538 36.9847 191.712 36.6055 194.143 36.6055ZM171.438 42.1177H156.901V49.9339H170.286C171.274 49.9339 172.004 50.1555 172.489 50.593C172.98 51.0305 173.214 51.6138 173.214 52.3312C173.214 53.0487 172.974 53.6436 172.501 54.0928C172.022 54.5419 171.286 54.7752 170.281 54.7752H156.895V63.8397H171.928C172.945 63.8397 173.71 64.0788 174.219 64.5455C174.739 65.0121 174.996 65.6421 174.996 66.4179C174.996 67.1645 174.739 67.7828 174.219 68.2494C173.705 68.7161 172.945 68.9552 171.928 68.9552H154.394C152.992 68.9552 151.981 68.6461 151.368 68.0219C150.754 67.3978 150.439 66.3945 150.439 65.0063V41.0911C150.439 40.1636 150.579 39.4112 150.853 38.8279C151.128 38.2446 151.56 37.8129 152.145 37.5446C152.729 37.2763 153.477 37.1421 154.394 37.1421H171.432C172.46 37.1421 173.225 37.3696 173.722 37.8246C174.219 38.2854 174.47 38.8862 174.47 39.6153C174.47 40.3678 174.219 40.9802 173.722 41.4352C173.231 41.8844 172.466 42.1177 171.438 42.1177ZM120.868 61.5182L137.234 41.9777H123.17C122.183 41.9777 121.441 41.7619 120.944 41.3244C120.442 40.8869 120.196 40.3153 120.196 39.6095C120.196 38.8745 120.442 38.2796 120.944 37.8188C121.441 37.3696 122.183 37.1363 123.17 37.1363H141.295C143.638 37.1363 144.812 38.2329 144.812 40.4144C144.812 41.4585 144.619 42.2868 144.228 42.911C143.836 43.5351 143.047 44.5384 141.861 45.9324L126.559 64.1022H143.421C144.415 64.1022 145.163 64.3122 145.653 64.7263C146.15 65.1346 146.395 65.7121 146.395 66.4529C146.395 67.217 146.15 67.8236 145.653 68.2728C145.163 68.7219 144.415 68.9494 143.421 68.9494H122.732C121.33 68.9494 120.272 68.6286 119.565 68.0044C118.852 67.3745 118.496 66.5404 118.496 65.4788C118.496 65.1171 118.554 64.7846 118.665 64.4813C118.782 64.178 118.94 63.8864 119.133 63.6239C119.332 63.3556 119.6 63.0172 119.951 62.6089C120.301 62.189 120.605 61.8215 120.868 61.5182Z" fill="white"/>
<path fill-rule="evenodd" clip-rule="evenodd" d="M47.1438 30.1017C51.8064 34.7564 51.8064 42.2985 47.1438 46.9474C42.4813 51.6021 34.9266 51.6021 30.2699 46.9474C25.6073 42.2927 25.6073 34.7506 30.2699 30.1017C34.9324 25.447 42.4871 25.447 47.1438 30.1017Z" fill="white"/>
<path fill-rule="evenodd" clip-rule="evenodd" d="M74.8036 57.7092C79.4662 62.364 79.4662 69.906 74.8036 74.5549C70.1411 79.2096 62.5863 79.2096 57.9296 74.5549C53.2671 69.9002 53.2671 62.3581 57.9296 57.7092C62.5863 53.0603 70.1411 53.0603 74.8036 57.7092Z" fill="white"/>
<path fill-rule="evenodd" clip-rule="evenodd" d="M74.3712 30.2242C79.0338 34.8789 79.0338 42.421 74.3712 47.0699C69.7087 51.7246 62.154 51.7246 57.4973 47.0699C52.8347 42.4151 52.8347 34.8731 57.4973 30.2242C62.154 25.5753 69.7087 25.5753 74.3712 30.2242Z" fill="white"/>
<path fill-rule="evenodd" clip-rule="evenodd" d="M46.7173 57.8317C51.3799 62.4864 51.3799 70.0285 46.7173 74.6774C42.0548 79.3263 34.5 79.3321 29.8433 74.6774C25.1808 70.0227 25.1808 62.4806 29.8433 57.8317C34.5 53.1828 42.0548 53.1828 46.7173 57.8317Z" fill="white"/>
<path fill-rule="evenodd" clip-rule="evenodd" d="M17.7079 30.2009C21.6225 30.685 24.2343 35.5556 23.5506 41.0736C22.8612 46.5916 19.1335 50.6688 15.2188 50.1847C11.3042 49.7006 8.69243 44.83 9.37603 39.312C10.0655 33.794 13.7932 29.7109 17.7079 30.2009Z" fill="white"/>
<path fill-rule="evenodd" clip-rule="evenodd" d="M30.1121 87.3466C30.5971 83.4385 35.4758 80.8312 41.0031 81.5136C46.5303 82.2019 50.6145 85.9233 50.1295 89.8315C49.6446 93.7395 44.7658 96.3469 39.2385 95.6644C33.7113 94.982 29.6272 91.2547 30.1121 87.3466Z" fill="white"/>
<path fill-rule="evenodd" clip-rule="evenodd" d="M14.5936 54.8569C18.4849 54.1978 22.3879 58.1117 23.3228 63.5947C24.2518 69.0777 21.8562 74.0532 17.9649 74.7124C14.0736 75.3715 10.1707 71.4576 9.23581 65.9746C8.3068 60.4974 10.7023 55.516 14.5936 54.8569Z" fill="white"/>
<path fill-rule="evenodd" clip-rule="evenodd" d="M54.9965 90.2748C54.3363 86.39 58.2568 82.4936 63.749 81.5603C69.2413 80.6329 74.2252 83.0244 74.8854 86.9091C75.5456 90.7939 71.6251 94.6903 66.1329 95.6236C60.6465 96.5511 55.6568 94.1595 54.9965 90.2748Z" fill="white"/>
<path fill-rule="evenodd" clip-rule="evenodd" d="M4.70765 37.1946C6.55981 37.5738 7.5414 40.7236 6.89869 44.2292C6.25599 47.7348 4.24022 50.2722 2.38806 49.893C0.535893 49.5139 -0.445696 46.3641 0.197011 42.8585C0.839718 39.3528 2.85548 36.8155 4.70765 37.1946Z" fill="white"/>
<path fill-rule="evenodd" clip-rule="evenodd" d="M37.1819 100.267C37.5617 98.4176 40.7168 97.4377 44.2283 98.0793C47.7398 98.7209 50.2814 100.733 49.9016 102.582C49.5219 104.431 46.3667 105.411 42.8552 104.77C39.3437 104.128 36.8021 102.116 37.1819 100.267Z" fill="white"/>
<path fill-rule="evenodd" clip-rule="evenodd" d="M2.42896 55.2477C4.29281 54.9327 6.34363 57.5168 7.01555 61.0165C7.68747 64.5163 6.71757 67.6078 4.85372 67.9228C2.98987 68.2378 0.93905 65.6538 0.267129 62.154C-0.404792 58.6542 0.565111 55.5627 2.42896 55.2477Z" fill="white"/>
<path fill-rule="evenodd" clip-rule="evenodd" d="M55.1777 102.629C54.8622 100.768 57.4505 98.7209 60.9562 98.0501C64.4619 97.3794 67.5585 98.3476 67.8741 100.208C68.1896 102.069 65.6012 104.116 62.0955 104.787C58.5899 105.458 55.4932 104.49 55.1777 102.629Z" fill="white"/>
<path fill-rule="evenodd" clip-rule="evenodd" d="M13.7289 80.9828C15.2948 79.3263 19.1802 80.5279 22.4172 83.6602C25.6541 86.7983 27.0096 90.6772 25.4496 92.3338C23.8837 93.9904 19.9982 92.7888 16.7613 89.6565C13.5244 86.5242 12.1689 82.6394 13.7289 80.9828Z" fill="white"/>
<path fill-rule="evenodd" clip-rule="evenodd" d="M79.8518 92.5146C78.1924 90.9514 79.396 87.0725 82.5336 83.841C85.677 80.6095 89.5625 79.2563 91.2219 80.8137C92.8812 82.3769 91.6776 86.2558 88.54 89.4873C85.4024 92.7188 81.5111 94.072 79.8518 92.5146Z" fill="white"/>
<path fill-rule="evenodd" clip-rule="evenodd" d="M87.4416 74.6832C83.5269 74.2049 80.9035 69.3402 81.5813 63.8222C82.259 58.3042 85.9809 54.2153 89.8955 54.6936C93.8102 55.1719 96.4336 60.0366 95.7559 65.5546C95.0781 71.0726 91.3562 75.1615 87.4416 74.6832Z" fill="white"/>
<path fill-rule="evenodd" clip-rule="evenodd" d="M74.8328 17.6483C74.3537 21.5564 69.4808 24.1754 63.9535 23.4988C58.4263 22.8222 54.3305 19.1066 54.8096 15.1985C55.2887 11.2904 60.1616 8.67136 65.6889 9.34798C71.2161 10.0246 75.3119 13.7402 74.8328 17.6483Z" fill="white"/>
<path fill-rule="evenodd" clip-rule="evenodd" d="M90.3688 50.1555C86.4833 50.8205 82.5687 46.9182 81.628 41.4352C80.6873 35.9522 83.077 30.9708 86.9625 30.3059C90.8479 29.6409 94.7626 33.5432 95.7033 39.0262C96.644 44.5034 94.2601 49.4906 90.3688 50.1555Z" fill="white"/>
<path fill-rule="evenodd" clip-rule="evenodd" d="M50.1237 14.586C50.7897 18.4649 46.8809 22.373 41.3887 23.3121C35.8965 24.2513 30.9067 21.8656 30.2406 17.9866C29.5746 14.1077 33.4834 10.1996 38.9756 9.26049C44.4678 8.32138 49.4576 10.7012 50.1237 14.586Z" fill="white"/>
<path fill-rule="evenodd" clip-rule="evenodd" d="M100.196 67.8936C98.3442 67.5203 97.3568 64.3705 97.9878 60.8649C98.6188 57.3593 100.635 54.8161 102.487 55.1952C104.339 55.5685 105.326 58.7183 104.695 62.224C104.064 65.7296 102.049 68.2728 100.196 67.8936Z" fill="white"/>
<path fill-rule="evenodd" clip-rule="evenodd" d="M67.8039 4.6816C67.43 6.53066 64.2749 7.51643 60.7634 6.88647C57.2519 6.25651 54.7044 4.24413 55.0842 2.39507C55.4581 0.546018 58.6132 -0.439756 62.1248 0.190206C65.6363 0.820168 68.1779 2.83255 67.8039 4.6816Z" fill="white"/>
<path fill-rule="evenodd" clip-rule="evenodd" d="M102.569 49.7064C100.705 50.0214 98.648 47.4432 97.9703 43.9434C97.2925 40.4436 98.2566 37.3521 100.12 37.0313C101.984 36.7163 104.041 39.2945 104.719 42.7943C105.391 46.2999 104.432 49.3914 102.569 49.7064Z" fill="white"/>
<path fill-rule="evenodd" clip-rule="evenodd" d="M49.7088 2.44174C50.0243 4.30246 47.4418 6.35567 43.9361 7.03229C40.4305 7.70892 37.3338 6.74648 37.0124 4.88576C36.6969 3.02504 39.2794 0.971826 42.7851 0.2952C46.2966 -0.375593 49.3933 0.581016 49.7088 2.44174Z" fill="white"/>
<path fill-rule="evenodd" clip-rule="evenodd" d="M80.9269 13.9035C82.4927 12.247 86.3782 13.4486 89.6151 16.5809C92.852 19.719 94.2075 23.598 92.6475 25.2545C91.0816 26.9111 87.1962 25.7095 83.9593 22.5772C80.7224 19.439 79.361 15.5601 80.9269 13.9035Z" fill="white"/>
<path fill-rule="evenodd" clip-rule="evenodd" d="M12.6597 25.4295C11.0003 23.8663 12.204 19.9873 15.3415 16.7559C18.485 13.5244 22.3704 12.1712 24.0298 13.7286C25.6891 15.2918 24.4855 19.1707 21.3479 22.4022C18.2045 25.6337 14.3132 26.9928 12.6597 25.4295Z" fill="white"/>
</svg>
