<svg width="18" height="18" viewBox="0 0 18 18" fill="none" xmlns="http://www.w3.org/2000/svg">
<g clip-path="url(#clip0_13373_12891)">
<path d="M0.293379 8.93065L4.45059 11.0025C4.61138 11.0819 4.80121 11.0762 4.95492 10.9862L8.65525 8.83502L6.4155 10.8198C6.30146 10.9211 6.23629 11.0656 6.23629 11.2179V16.0522C6.23629 16.5622 6.88725 16.7769 7.19254 16.3717L8.98959 13.9825L13.4337 16.5134C13.7453 16.6926 14.1448 16.5127 14.2171 16.1564L16.9888 2.34385C17.0717 1.92877 16.6587 1.59018 16.2748 1.7446L0.337295 7.96023C-0.0905381 8.1274 -0.118163 8.72594 0.293379 8.93065V8.93065ZM15.7563 3.0876L13.3203 15.2263L9.10929 12.8279C8.87979 12.6969 8.58442 12.7549 8.4215 12.9703L7.29879 14.4627V11.4566L13.3558 6.09023C13.8353 5.66594 13.2842 4.91156 12.7367 5.23315L4.66875 9.92373L1.84109 8.51486L15.7563 3.0876Z" fill="#E5E5E5"/>
</g>
<defs>
<clipPath id="clip0_13373_12891">
<rect width="17" height="17" fill="white" transform="translate(0 1)"/>
</clipPath>
</defs>
</svg>
