<svg width="18" height="18" viewBox="0 0 18 18" fill="none" xmlns="http://www.w3.org/2000/svg">
<mask id="path-1-inside-1_13373_12865" fill="white">
<path fill-rule="evenodd" clip-rule="evenodd" d="M2.60156 3.9375H15.3984C15.7153 3.93785 16.0192 4.0639 16.2433 4.28799C16.4673 4.51208 16.5934 4.8159 16.5938 5.13281V12.8672C16.5934 13.1841 16.4673 13.4879 16.2433 13.712C16.0192 13.9361 15.7153 14.0621 15.3984 14.0625H2.60156C2.28465 14.0621 1.98083 13.9361 1.75674 13.712C1.53265 13.4879 1.4066 13.1841 1.40625 12.8672V11.8125V11.25V9.5625V9V5.13281C1.4066 4.8159 1.53265 4.51208 1.75674 4.28799C1.98083 4.0639 2.28465 3.93785 2.60156 3.9375ZM15.3984 4.5H2.60156C2.55785 4.50003 2.51426 4.50459 2.47148 4.51361L8.40959 9.53824C8.57438 9.67839 8.78366 9.75535 9 9.75535C9.21634 9.75535 9.42562 9.67839 9.59041 9.53824L15.5285 4.51361C15.4857 4.50459 15.4422 4.50003 15.3984 4.5ZM1.96875 11.8125V12.8672C1.96877 12.9553 1.98733 13.0424 2.02321 13.1229L7.42999 9.44631L2.06831 4.9095C2.05344 4.89687 2.03992 4.88273 2.02795 4.86731C1.98904 4.95042 1.96884 5.04105 1.96875 5.13281V9V9.5625V10.125V10.6875V11.25V11.8125ZM2.48534 13.4888C2.52365 13.4961 2.56256 13.4999 2.60156 13.5H15.3984C15.4374 13.4999 15.4763 13.4961 15.5147 13.4888L10.1243 9.82336L9.95379 9.9675C9.68756 10.1939 9.34948 10.3182 9 10.3182C8.65052 10.3182 8.31244 10.1939 8.04621 9.9675L7.8757 9.82336L2.48534 13.4888ZM15.9768 13.1229C16.0127 13.0424 16.0312 12.9553 16.0312 12.8672V5.13281C16.0312 5.04316 16.0119 4.95456 15.9748 4.87297L10.57 9.44624L15.9768 13.1229Z"/>
</mask>
<path fill-rule="evenodd" clip-rule="evenodd" d="M2.60156 3.9375H15.3984C15.7153 3.93785 16.0192 4.0639 16.2433 4.28799C16.4673 4.51208 16.5934 4.8159 16.5938 5.13281V12.8672C16.5934 13.1841 16.4673 13.4879 16.2433 13.712C16.0192 13.9361 15.7153 14.0621 15.3984 14.0625H2.60156C2.28465 14.0621 1.98083 13.9361 1.75674 13.712C1.53265 13.4879 1.4066 13.1841 1.40625 12.8672V11.8125V11.25V9.5625V9V5.13281C1.4066 4.8159 1.53265 4.51208 1.75674 4.28799C1.98083 4.0639 2.28465 3.93785 2.60156 3.9375ZM15.3984 4.5H2.60156C2.55785 4.50003 2.51426 4.50459 2.47148 4.51361L8.40959 9.53824C8.57438 9.67839 8.78366 9.75535 9 9.75535C9.21634 9.75535 9.42562 9.67839 9.59041 9.53824L15.5285 4.51361C15.4857 4.50459 15.4422 4.50003 15.3984 4.5ZM1.96875 11.8125V12.8672C1.96877 12.9553 1.98733 13.0424 2.02321 13.1229L7.42999 9.44631L2.06831 4.9095C2.05344 4.89687 2.03992 4.88273 2.02795 4.86731C1.98904 4.95042 1.96884 5.04105 1.96875 5.13281V9V9.5625V10.125V10.6875V11.25V11.8125ZM2.48534 13.4888C2.52365 13.4961 2.56256 13.4999 2.60156 13.5H15.3984C15.4374 13.4999 15.4763 13.4961 15.5147 13.4888L10.1243 9.82336L9.95379 9.9675C9.68756 10.1939 9.34948 10.3182 9 10.3182C8.65052 10.3182 8.31244 10.1939 8.04621 9.9675L7.8757 9.82336L2.48534 13.4888ZM15.9768 13.1229C16.0127 13.0424 16.0312 12.9553 16.0312 12.8672V5.13281C16.0312 5.04316 16.0119 4.95456 15.9748 4.87297L10.57 9.44624L15.9768 13.1229Z" fill="#E6E6E6"/>
<path d="M-0.28125 9.28125H-1.28125H-0.28125ZM3.09375 9V8V9ZM1.40625 8H0V10H1.40625V8ZM0 8C-0.339807 8 -0.665698 8.13499 -0.905981 8.37527L0.508233 9.78948C0.37344 9.92428 0.190622 10 0 10V8ZM-0.905981 8.37527C-1.14626 8.61555 -1.28125 8.94144 -1.28125 9.28125H0.71875C0.71875 9.47187 0.643025 9.65469 0.508233 9.78948L-0.905981 8.37527ZM-1.28125 9.28125C-1.28125 9.62106 -1.14626 9.94695 -0.905981 10.1872L0.508233 8.77302C0.643025 8.90781 0.71875 9.09063 0.71875 9.28125H-1.28125ZM-0.905981 10.1872C-0.665698 10.4275 -0.339807 10.5625 0 10.5625V8.5625C0.190622 8.5625 0.37344 8.63822 0.508233 8.77302L-0.905981 10.1872ZM0 10.5625H1.40625V8.5625H0V10.5625ZM1.40625 10.25H0.84375V12.25H1.40625V10.25ZM0.84375 10.25C0.503943 10.25 0.178052 10.385 -0.0622305 10.6253L1.35198 12.0395C1.21719 12.1743 1.03437 12.25 0.84375 12.25V10.25ZM-0.0622305 10.6253C-0.302512 10.8656 -0.4375 11.1914 -0.4375 11.5312H1.5625C1.5625 11.7219 1.48678 11.9047 1.35198 12.0395L-0.0622305 10.6253ZM-0.4375 11.5312C-0.4375 11.8711 -0.302512 12.1969 -0.0622305 12.4372L1.35198 11.023C1.48678 11.1578 1.5625 11.3406 1.5625 11.5312H-0.4375ZM-0.0622305 12.4372C0.178052 12.6775 0.503943 12.8125 0.84375 12.8125V10.8125C1.03437 10.8125 1.21719 10.8882 1.35198 11.023L-0.0622305 12.4372ZM0.84375 12.8125H1.40625V10.8125H0.84375V12.8125ZM1.96875 12.8125H2.53125V10.8125H1.96875V12.8125ZM2.53125 12.8125C2.87106 12.8125 3.19695 12.6775 3.43723 12.4372L2.02302 11.023C2.15781 10.8882 2.34063 10.8125 2.53125 10.8125V12.8125ZM3.43723 12.4372C3.67751 12.1969 3.8125 11.8711 3.8125 11.5312H1.8125C1.8125 11.3406 1.88822 11.1578 2.02302 11.023L3.43723 12.4372ZM3.8125 11.5312C3.8125 11.1914 3.67751 10.8656 3.43723 10.6253L2.02302 12.0395C1.88822 11.9047 1.8125 11.7219 1.8125 11.5312H3.8125ZM3.43723 10.6253C3.19695 10.385 2.87106 10.25 2.53125 10.25V12.25C2.34063 12.25 2.15781 12.1743 2.02302 12.0395L3.43723 10.6253ZM2.53125 10.25H1.96875V12.25H2.53125V10.25ZM1.96875 11.6875H2.8125V9.6875H1.96875V11.6875ZM2.8125 11.6875C3.15231 11.6875 3.4782 11.5525 3.71848 11.3122L2.30427 9.89802C2.43906 9.76322 2.62188 9.6875 2.8125 9.6875V11.6875ZM3.71848 11.3122C3.95876 11.0719 4.09375 10.7461 4.09375 10.4062H2.09375C2.09375 10.2156 2.16947 10.0328 2.30427 9.89802L3.71848 11.3122ZM4.09375 10.4062C4.09375 10.0664 3.95876 9.74055 3.71848 9.50027L2.30427 10.9145C2.16947 10.7797 2.09375 10.5969 2.09375 10.4062H4.09375ZM3.71848 9.50027C3.4782 9.25999 3.15231 9.125 2.8125 9.125V11.125C2.62188 11.125 2.43906 11.0493 2.30427 10.9145L3.71848 9.50027ZM2.8125 9.125H1.96875V11.125H2.8125V9.125ZM1.96875 10.5625H3.09375V8.5625H1.96875V10.5625ZM3.09375 10.5625C3.43356 10.5625 3.75945 10.4275 3.99973 10.1872L2.58552 8.77302C2.72031 8.63822 2.90313 8.5625 3.09375 8.5625V10.5625ZM3.99973 10.1872C4.24001 9.94695 4.375 9.62106 4.375 9.28125H2.375C2.375 9.09063 2.45072 8.90781 2.58552 8.77302L3.99973 10.1872ZM4.375 9.28125C4.375 8.94144 4.24001 8.61555 3.99973 8.37527L2.58552 9.78948C2.45072 9.65469 2.375 9.47187 2.375 9.28125H4.375ZM3.99973 8.37527C3.75945 8.13499 3.43356 8 3.09375 8V10C2.90313 10 2.72031 9.92428 2.58552 9.78948L3.99973 8.37527ZM3.09375 8H1.96875V10H3.09375V8ZM15.3984 3.9375L15.4007 1.9375H15.3984V3.9375ZM2.60156 3.9375V1.9375L2.59933 1.9375L2.60156 3.9375ZM1.40625 5.13281L-0.59375 5.13058V5.13281H1.40625ZM1.40625 12.8672H-0.593751L-0.593749 12.8694L1.40625 12.8672ZM2.60156 14.0625L2.59933 16.0625H2.60156V14.0625ZM15.3984 14.0625V16.0625L15.4007 16.0625L15.3984 14.0625ZM16.5938 12.8672L18.5938 12.8694V12.8672H16.5938ZM16.5938 5.13281H18.5938L18.5937 5.13058L16.5938 5.13281ZM2.60156 4.5V2.5L2.60026 2.5L2.60156 4.5ZM15.3984 4.5L15.3998 2.5H15.3984V4.5ZM15.5285 4.51361L16.8204 6.04037L19.9411 3.39974L15.941 2.55661L15.5285 4.51361ZM9.59041 9.53824L8.29851 8.01148L8.29473 8.01469L9.59041 9.53824ZM8.40959 9.53824L9.70527 8.01469L9.70148 8.01148L8.40959 9.53824ZM2.47148 4.51361L2.05891 2.55662L-1.94094 3.39988L1.17959 6.04037L2.47148 4.51361ZM1.96875 12.8672H-0.0312501L-0.0312499 12.8677L1.96875 12.8672ZM1.96875 5.13281L-0.03125 5.13096V5.13281H1.96875ZM2.02795 4.86731L3.6081 3.64128L1.60331 1.05745L0.216637 4.01929L2.02795 4.86731ZM2.06831 4.9095L0.773527 6.43382L0.776428 6.43627L2.06831 4.9095ZM7.42999 9.44631L8.5546 11.1002L10.7314 9.61994L8.72188 7.91954L7.42999 9.44631ZM2.02321 13.1229L0.19658 13.9374L1.17043 16.1213L3.14782 14.7767L2.02321 13.1229ZM15.3984 13.5V15.5L15.4056 15.5L15.3984 13.5ZM2.60156 13.5L2.5945 15.5H2.60156V13.5ZM2.48534 13.4888L1.36071 11.835L-2.63183 14.5499L2.11104 15.4535L2.48534 13.4888ZM7.8757 9.82336L9.16688 8.29599L8.007 7.31548L6.75108 8.16951L7.8757 9.82336ZM8.04621 9.9675L9.34188 8.44393L9.33739 8.44013L8.04621 9.9675ZM9 10.3182V8.31822V10.3182ZM9.95379 9.9675L8.66261 8.44012L8.65812 8.44394L9.95379 9.9675ZM10.1243 9.82336L11.2489 8.16951L9.993 7.31548L8.83312 8.29599L10.1243 9.82336ZM15.5147 13.4888L15.8889 15.4535L20.6321 14.5501L16.6393 11.835L15.5147 13.4888ZM16.0312 12.8672L18.0312 12.8677V12.8672H16.0312ZM15.9768 13.1229L14.8522 14.7767L16.8296 16.1214L17.8034 13.9374L15.9768 13.1229ZM10.57 9.44624L9.27812 7.91946L7.26858 9.61985L9.44538 11.1001L10.57 9.44624ZM15.9748 4.87297L17.7949 4.04401L16.6998 1.63958L14.6829 3.3462L15.9748 4.87297ZM16.0312 5.13281H18.0312V5.1317L16.0312 5.13281ZM15.3984 1.9375H2.60156V5.9375H15.3984V1.9375ZM2.59933 1.9375C1.75276 1.93845 0.94114 2.27516 0.342526 2.87378L3.17095 5.7022C3.02051 5.85264 2.81654 5.93726 2.60379 5.9375L2.59933 1.9375ZM0.342526 2.87378C-0.256089 3.47239 -0.592804 4.28401 -0.593749 5.13058L3.40625 5.13504C3.40601 5.34779 3.32139 5.55176 3.17095 5.7022L0.342526 2.87378ZM-0.59375 5.13281V9H3.40625V5.13281H-0.59375ZM-0.59375 9.5625V11.25H3.40625V9.5625H-0.59375ZM-0.59375 11.8125V12.8672H3.40625V11.8125H-0.59375ZM-0.593749 12.8694C-0.592804 13.716 -0.256088 14.5276 0.342526 15.1262L3.17095 12.2978C3.32139 12.4482 3.40601 12.6522 3.40625 12.865L-0.593749 12.8694ZM0.342526 15.1262C0.941139 15.7248 1.75276 16.0616 2.59933 16.0625L2.60379 12.0625C2.81655 12.0627 3.02052 12.1474 3.17095 12.2978L0.342526 15.1262ZM2.60156 16.0625H15.3984V12.0625H2.60156V16.0625ZM15.4007 16.0625C16.2472 16.0616 17.0589 15.7248 17.6575 15.1262L14.829 12.2978C14.9795 12.1474 15.1835 12.0627 15.3962 12.0625L15.4007 16.0625ZM17.6575 15.1262C18.2561 14.5276 18.5928 13.716 18.5937 12.8694L14.5938 12.865C14.594 12.6522 14.6786 12.4482 14.829 12.2978L17.6575 15.1262ZM18.5938 12.8672V5.13281H14.5938V12.8672H18.5938ZM18.5937 5.13058C18.5928 4.28401 18.2561 3.47239 17.6575 2.87378L14.829 5.7022C14.6786 5.55177 14.594 5.3478 14.5938 5.13504L18.5937 5.13058ZM17.6575 2.87378C17.0589 2.27516 16.2472 1.93845 15.4007 1.9375L15.3962 5.9375C15.1835 5.93726 14.9795 5.85264 14.829 5.7022L17.6575 2.87378ZM2.60156 6.5H15.3984V2.5H2.60156V6.5ZM15.3971 6.5C15.3026 6.49993 15.2084 6.49008 15.116 6.4706L15.941 2.55661C15.763 2.51909 15.5817 2.50013 15.3998 2.5L15.3971 6.5ZM14.2366 2.98684L8.29852 8.01148L10.8823 11.065L16.8204 6.04037L14.2366 2.98684ZM8.29473 8.01469C8.49159 7.84728 8.74158 7.75535 9 7.75535V11.7553C9.69109 11.7553 10.3596 11.5095 10.8861 11.0618L8.29473 8.01469ZM9 7.75535C9.25842 7.75535 9.50841 7.84728 9.70527 8.01469L7.1139 11.0618C7.64036 11.5095 8.30891 11.7553 9 11.7553V7.75535ZM9.70148 8.01148L3.76338 2.98684L1.17959 6.04037L7.11769 11.065L9.70148 8.01148ZM2.88406 6.47059C2.79159 6.49008 2.69736 6.49994 2.60287 6.5L2.60026 2.5C2.41834 2.50012 2.23692 2.51909 2.05891 2.55662L2.88406 6.47059ZM3.96875 12.8672V11.8125H-0.03125V12.8672H3.96875ZM3.96875 11.25V10.6875H-0.03125V11.25H3.96875ZM3.96875 10.125V9.5625H-0.03125V10.125H3.96875ZM3.96875 9V5.13281H-0.03125V9H3.96875ZM3.96875 5.13467C3.96856 5.33536 3.92437 5.53357 3.83927 5.71533L0.216637 4.01929C0.0537234 4.36727 -0.0308926 4.74674 -0.0312491 5.13096L3.96875 5.13467ZM0.447811 6.09334C0.544355 6.21777 0.653511 6.33187 0.773529 6.43382L3.3631 3.38518C3.45337 3.46187 3.53547 3.54769 3.6081 3.64128L0.447811 6.09334ZM0.776428 6.43627L6.13811 10.9731L8.72188 7.91954L3.3602 3.38273L0.776428 6.43627ZM6.30538 7.79245L0.898596 11.469L3.14782 14.7767L8.5546 11.1002L6.30538 7.79245ZM3.84983 12.3084C3.92819 12.4841 3.9687 12.6743 3.96875 12.8667L-0.0312499 12.8677C-0.0311617 13.2363 0.0464626 13.6007 0.19658 13.9374L3.84983 12.3084ZM15.3984 11.5H2.60156V15.5H15.3984V11.5ZM2.60862 11.5C2.69285 11.5003 2.77688 11.5084 2.85963 11.5242L2.11104 15.4535C2.27043 15.4838 2.43227 15.4994 2.5945 15.5L2.60862 11.5ZM3.60996 15.1427L9.00033 11.4772L6.75108 8.16951L1.36071 11.835L3.60996 15.1427ZM6.58453 11.3507L6.75504 11.4949L9.33739 8.44013L9.16688 8.29599L6.58453 11.3507ZM6.75054 11.4911C7.37842 12.025 8.17577 12.3182 9 12.3182V8.31822C9.12527 8.31822 9.24645 8.36278 9.34188 8.44394L6.75054 11.4911ZM9 12.3182C9.82423 12.3182 10.6216 12.025 11.2495 11.4911L8.65812 8.44394C8.75355 8.36278 8.87473 8.31822 9 8.31822V12.3182ZM11.245 11.4949L11.4155 11.3507L8.83312 8.29599L8.66262 8.44013L11.245 11.4949ZM8.99967 11.4772L14.39 15.1427L16.6393 11.835L11.2489 8.16951L8.99967 11.4772ZM15.1405 11.5241C15.2232 11.5084 15.3071 11.5003 15.3913 11.5L15.4056 15.5C15.5678 15.4994 15.7295 15.4838 15.8889 15.4535L15.1405 11.5241ZM14.0312 12.8667C14.0313 12.6743 14.0718 12.4841 14.1502 12.3084L17.8034 13.9374C17.9535 13.6007 18.0312 13.2363 18.0312 12.8677L14.0312 12.8667ZM17.1014 11.469L11.6946 7.79239L9.44538 11.1001L14.8522 14.7767L17.1014 11.469ZM11.8619 10.973L17.2667 6.39975L14.6829 3.3462L9.27812 7.91946L11.8619 10.973ZM14.1547 5.70193C14.0734 5.52358 14.0314 5.3299 14.0312 5.13393L18.0312 5.1317C18.031 4.75642 17.9505 4.38554 17.7949 4.04401L14.1547 5.70193ZM14.0312 5.13281V12.8672H18.0312V5.13281H14.0312ZM-0.03125 9V9.5625H3.96875V9H-0.03125ZM-0.59375 9V9.5625H3.40625V9H-0.59375ZM-0.03125 10.125V10.6875H3.96875V10.125H-0.03125ZM-0.03125 11.25V11.8125H3.96875V11.25H-0.03125ZM-0.59375 11.25V11.8125H3.40625V11.25H-0.59375Z" fill="#E6E6E6" mask="url(#path-1-inside-1_13373_12865)"/>
</svg>
